<svg width="172" height="43" viewBox="0 0 172 43" fill="none" xmlns="http://www.w3.org/2000/svg">
<path d="M23.6777 13.2378C24.3055 14.0558 24.8371 14.9445 25.2615 15.8861L13.2214 24.8299L8.18945 21.6513V17.8273L13.2214 21.0059L23.6777 13.2378Z" fill="white"/>
<path d="M3.05363 21.3816C3.05363 21.21 3.05778 21.0395 3.06609 20.8701L0.016608 20.7195C0.00622856 20.9391 3.68515e-06 21.1609 3.68515e-06 21.3847C-0.00129378 23.1333 0.340031 24.865 1.00441 26.4803C1.66878 28.0958 2.64312 29.5631 3.87153 30.7981L6.0346 28.6194C5.08901 27.6704 4.33887 26.5424 3.82729 25.3003C3.31572 24.0582 3.0528 22.7264 3.05363 21.3816Z" fill="white"/>
<path d="M13.2178 11.1389C13.388 11.1389 13.5571 11.1452 13.7253 11.1535L13.8779 8.07954C13.6593 8.06908 13.4392 8.06385 13.2178 8.06385C11.4817 8.06172 9.76233 8.40518 8.15836 9.0745C6.55438 9.74383 5.0974 10.7258 3.87109 11.9641L6.03417 14.1439C6.97598 13.1907 8.09549 12.4345 9.32832 11.9188C10.5611 11.4031 11.8829 11.1381 13.2178 11.1389Z" fill="white"/>
<path d="M13.2178 31.6244C13.0476 31.6244 12.8784 31.6244 12.7092 31.6108L12.5566 34.6837C12.776 34.6949 12.9964 34.7005 13.2178 34.7005C14.9532 34.7023 16.6717 34.3586 18.2748 33.6891C19.8779 33.0196 21.334 32.0374 22.5593 30.7992L20.4004 28.6205C19.4584 29.5732 18.339 30.3289 17.1064 30.8444C15.8739 31.3599 14.5523 31.625 13.2178 31.6244Z" fill="white"/>
<path d="M18.9485 12.9261L21.5184 11.0173C19.1695 9.10057 16.2374 8.05718 13.2148 8.06252V11.1386C15.2616 11.1361 17.2608 11.7593 18.9485 12.9261Z" fill="white"/>
<path d="M26.4362 21.3815C26.4378 20.5812 26.3684 19.7824 26.2285 18.9946L23.3836 21.1074C23.3836 21.1985 23.3836 21.2894 23.3836 21.3815C23.3843 22.8126 23.0866 24.2279 22.5098 25.5357C21.933 26.8434 21.0898 28.0144 20.0352 28.9728L22.0872 31.2583C23.4584 30.0109 24.5541 28.487 25.3033 26.7856C26.0525 25.0841 26.4385 23.2429 26.4362 21.3815Z" fill="white"/>
<path d="M13.2193 31.6243C11.799 31.6248 10.3944 31.3247 9.09644 30.7435C7.79856 30.1622 6.63626 29.3127 5.68483 28.2501L3.41797 30.3169C4.65567 31.6988 6.1678 32.8032 7.8563 33.5583C9.54479 34.3135 11.3719 34.7026 13.2193 34.7004V31.6243Z" fill="white"/>
<path d="M6.40205 13.79L4.35107 11.5046C2.9795 12.7518 1.88338 14.2755 1.13381 15.977C0.384241 17.6785 -0.00204358 19.5198 8.13037e-06 21.3814H3.05364C3.05301 19.9503 3.35076 18.535 3.92757 17.2272C4.50439 15.9195 5.34742 14.7485 6.40205 13.79Z" fill="white"/>
<path d="M76.2778 15.6794L80.0597 12.9034H67.4023V29.5845H80.0597V26.8086H71.014V22.5357H78.7304V19.7597H71.014V15.6794H76.2778Z" fill="white"/>
<path d="M58.8848 19.4018H54.4904V15.6783H61.5037L65.2833 12.8939H50.8809V29.575H58.4199C62.6467 29.575 65.0725 27.6664 65.0725 24.3378C65.0725 21.1534 62.8753 19.4018 58.8848 19.4018ZM58.2574 26.7982H54.4904V22.1761H58.2574C60.5435 22.1761 61.6154 22.9506 61.6154 24.4871C61.6154 26.0236 60.4749 26.7982 58.2574 26.7982Z" fill="white"/>
<path d="M89.3625 12.901H82.4727V29.582H86.0838V24.8566H89.3625C93.7583 24.8566 96.4776 22.5521 96.4776 18.8699C96.4776 15.1878 93.7583 12.901 89.3625 12.901ZM89.2863 22.0785H86.0838V15.6791H89.2863C91.5985 15.6791 92.8746 16.8161 92.8746 18.8801C92.8746 20.944 91.5985 22.0785 89.2863 22.0785Z" fill="white"/>
<path d="M45.4617 25.6454C44.5288 26.1487 43.4837 26.4093 42.4229 26.4031C39.248 26.4031 36.9447 24.1449 36.9447 21.0353C36.9447 17.9256 39.248 15.6625 42.4229 15.6625C43.5679 15.6431 44.6891 15.989 45.6227 16.6497L48.1488 14.7962L47.9779 14.6753C46.5044 13.3846 44.5355 12.7009 42.2818 12.7009C39.8373 12.7009 37.6208 13.5203 36.0383 15.0109C35.2381 15.7785 34.6053 16.7021 34.1791 17.7241C33.753 18.7462 33.5428 19.8447 33.5617 20.9513C33.5448 22.0692 33.754 23.179 34.177 24.2145C34.5999 25.25 35.2279 26.1898 36.0234 26.9782C37.6134 28.5281 39.825 29.3819 42.2521 29.3819C44.7881 29.3819 47.0047 28.5009 48.5055 26.8967L46.2443 25.2185L45.4617 25.6454Z" fill="white"/>
<path d="M110.798 19.4018H106.405V15.6783H115.844V12.8939H102.793V29.575H110.322C114.549 29.575 116.975 27.6664 116.975 24.3378C116.985 21.1534 114.788 19.4018 110.798 19.4018ZM110.17 26.7982H106.405V22.1761H110.17C112.456 22.1761 113.527 22.9506 113.527 24.4871C113.527 26.0236 112.397 26.7982 110.17 26.7982Z" fill="white"/>
<path d="M158.032 29.5511H154.371V12.87H158.032V19.8761H160.025L165.406 12.87H169.555L163.173 20.8054L170.584 29.5511H165.726L160.279 22.9906H158.032V29.5511Z" fill="white"/>
<path d="M130.276 26.381H122.531L121.218 29.6202H117.322L124.586 12.9392H128.482L135.628 29.6202H131.589L130.276 26.381ZM129.063 23.3585L126.427 16.8799L123.776 23.3585H129.063Z" fill="white"/>
<path d="M140.556 12.9392V19.9049H148.132V12.9392H151.907V29.6202H148.132V23.0473H140.556V29.6202H136.781V12.9392H140.556Z" fill="white"/>
</svg>
